<svg width="155" height="48" fill="none" xmlns="http://www.w3.org/2000/svg"><path d="M51.364 4.796c-4.331 3.54-9.873 11.41-13.97 17.836-.187 1.397-.373 2.7-.652 3.911-1.537 6.846-3.912 8.056-5.635 8.056-1.77 0-3.213-1.443-3.213-3.399 0-1.444 1.21-3.865 2.7-6.007.653-5.076 2.236-13.179 5.45-21.142-7.312 7.451-14.996 32.83-27.988 32.83-5.122 0-8.056-2.747-8.056-6.1 0-3.073 2.282-4.983 4.517-4.983 1.863 0 3.353 1.025 3.353 2.282 0 .605-1.397.931-1.397 2.84 0 1.584 1.21 2.422 2.84 2.422C21.096 33.342 30.549 0 37.814 0 40 0 41.77 1.583 41.77 3.493c0 .558-.14 1.21-.42 1.955-1.815 5.123-2.7 8.941-3.259 12.108C43.354 9.593 49.827.93 53.459.93c1.63 0 3.679 1.444 3.679 3.493 0 .559-.093 1.21-.42 1.956-1.815 4.377-7.217 14.11-7.217 20.815 0 1.118.605 2.561 1.583 2.561.838 0 2.235-.186 5.402-4.703.186-.28.466-.419.699-.419.325 0 .605.28.605.698 0 .233-.047.513-.233.792-2.561 4.61-5.541 8.382-9.826 8.382-2.7 0-4.656-2.328-4.656-6.147 0-6.659 5.122-17.602 8.289-23.563zm13.224 30.036l.28-2.887c-1.816 1.583-3.493 1.956-4.89 1.956-2.98 0-4.563-2.375-4.563-5.262 0-2.142.652-5.123 1.583-7.45 1.164-2.888 2.515-5.31 4.238-5.31 1.676 0 2.654 1.258 2.654 2.794 0 .839-.42 1.304-1.118 2.608-1.397 2.655-2.049 5.076-2.049 6.66 0 1.396.56 2.281 1.397 2.281 1.211 0 2.189-.652 3.167-1.723.745-5.495 2.235-11.828 6.193-11.828 1.677 0 2.142 1.257 2.142 2.794 0 2.468-2.002 6.007-3.632 8.522-.186 3.679-.233 9.5-2.235 13.877-1.583 3.446-4.843 5.681-8.801 5.681-3.865 0-6.38-2.375-6.38-5.448 0-3.307 3.306-5.775 6.752-5.775 1.025 0 1.956.28 1.956.978 0 .233-.186.373-.605.606-1.49.884-3.26 2.421-3.26 4.563 0 1.397.885 2.468 2.189 2.468 2.7 0 4.284-4.47 4.982-10.105zM87.71 8.894c0 7.079 14.017 7.73 14.017 17.23 0 6.66-6.566 12.061-15.227 12.061-7.777 0-12.527-4.424-12.527-9.127 0-3.12 2.142-5.728 5.17-5.728 1.815 0 3.212 1.21 3.212 2.096 0 .884-1.49 1.63-1.49 4.144 0 3.074 2.422 5.914 6.845 5.914 4.145 0 7.358-2.747 7.358-6.659 0-7.823-13.97-8.661-13.97-17.695 0-6.1 6.566-10.757 14.296-10.757 4.657 0 8.987 1.77 8.987 5.634 0 3.586-3.539 5.123-6.24 5.123-2.281 0-3.306-.885-3.306-1.63 0-.233.14-.42.373-.466 1.862-.559 2.933-1.537 2.933-3.12 0-1.77-1.63-2.747-3.632-2.747-3.12 0-6.799 2.002-6.799 5.727zm31.838 7.777c1.677 0 2.329 1.257 2.329 2.794 0 2.468-2.049 5.681-3.4 7.171-.046.373-.046.792-.046 1.165 0 1.397.652 2.049 1.443 2.049.885 0 2.282-.28 5.449-4.797.186-.28.465-.419.698-.419.326 0 .605.28.605.698 0 .233-.046.466-.232.792-3.493 6.287-6.613 7.777-9.034 7.777-1.91 0-3.074-1.118-3.679-2.748-2.096 2.236-4.052 2.748-5.635 2.748-2.98 0-4.563-2.375-4.563-5.262 0-2.142.651-5.123 1.583-7.45 1.164-2.888 2.514-5.31 4.237-5.31 1.677 0 2.655 1.258 2.655 2.794 0 .839-.373 1.304-1.118 2.608-1.49 2.655-2.235 4.657-2.235 6.52 0 1.955.745 2.421 1.583 2.421 1.118 0 2.142-.605 3.12-1.537v-.046c0-2.142.792-5.123 1.723-7.45 1.164-2.888 2.794-4.518 4.517-4.518zm21.248-11.595c0 3.306-2.095 7.497-4.982 11.316.558-.326 1.117-.513 1.723-.513 3.166 0 4.61 2.934 4.61 5.775 0 5.355-4.61 12.247-10.571 12.247-4.843 0-6.892-3.306-6.892-7.684 0-1.909.326-4.005.885-6.193C127.525 12.107 132.274.373 137.35.373c2.282 0 3.446 1.909 3.446 4.703zm-3.818 2.049c-1.304 0-4.284 6.38-6.101 12.34 3.866-4.191 6.613-8.94 6.613-11.595 0-.326-.047-.745-.512-.745zm-3.586 13.271c-.186 0-.512-.046-.512-.512v-.14a46.538 46.538 0 01-2.794 2.562c-.233.931-.466 2.375-.466 4.004 0 2.236.699 4.704 2.748 4.704 2.794 0 5.029-4.052 5.029-7.358 0-2.7-.978-3.912-2.189-3.912-.791 0-1.257.652-1.816.652zm14.729 4.75c0 .28-.512.373-1.024.792-1.165.978-1.723 1.91-1.723 3.306 0 1.444.884 2.189 1.769 2.189 1.444 0 2.515-1.444 2.515-3.493 0-3.4-3.167-7.031-3.167-9.919 0-2.095 1.63-4.517 3.958-4.517 1.584 0 2.189 1.118 2.189 2.329 0 1.257-.652 2.794-1.723 3.958 1.444 2.235 3.679 4.098 3.679 7.218 0 3.772-3.167 6.938-7.777 6.938-3.865 0-5.681-2.281-5.681-4.61 0-3.027 2.748-5.215 5.262-5.215.931 0 1.723.419 1.723 1.024z" fill="#051D40"/></svg>